<?xml version="1.0" encoding="utf-8"?>
<!-- Generator: Adobe Illustrator 16.0.4, SVG Export Plug-In . SVG Version: 6.00 Build 0)  -->
<!DOCTYPE svg PUBLIC "-//W3C//DTD SVG 1.1//EN" "http://www.w3.org/Graphics/SVG/1.1/DTD/svg11.dtd">
<svg version="1.1" id="octocat" xmlns="http://www.w3.org/2000/svg" xmlns:xlink="http://www.w3.org/1999/xlink" x="0px" y="0px"
	 width="56.69px" height="56.69px" viewBox="0 0 56.69 56.69" enable-background="new 0 0 56.69 56.69" xml:space="preserve">
<path fill="#ffffff" d="M28.375,0C12.703,0,0,12.703,0,28.375s12.703,28.375,28.375,28.375s28.375-12.703,28.375-28.375
	S44.046,0,28.375,0z M45.225,45.225c-2.19,2.191-4.737,3.909-7.575,5.109c-0.72,0.305-1.452,0.574-2.195,0.805v-4.254
	c0-2.234-0.767-3.88-2.3-4.931c0.962-0.092,1.843-0.222,2.646-0.39c0.802-0.166,1.652-0.405,2.55-0.719
	c0.896-0.314,1.698-0.688,2.41-1.125c0.711-0.433,1.393-0.997,2.049-1.688c0.656-0.692,1.207-1.478,1.65-2.355
	s0.793-1.931,1.054-3.159c0.258-1.228,0.388-2.582,0.388-4.06c0-2.864-0.933-5.303-2.799-7.315c0.85-2.217,0.758-4.626-0.275-7.232
	l-0.695-0.083c-0.479-0.055-1.344,0.147-2.591,0.61c-1.247,0.464-2.646,1.221-4.197,2.272c-2.198-0.609-4.479-0.914-6.843-0.914
	c-2.384,0-4.655,0.305-6.818,0.914c-0.979-0.665-1.905-1.214-2.783-1.648c-0.878-0.435-1.582-0.729-2.108-0.887
	c-0.527-0.157-1.015-0.254-1.469-0.291c-0.452-0.038-0.743-0.047-0.871-0.029c-0.13,0.019-0.222,0.038-0.278,0.055
	c-1.034,2.624-1.125,5.034-0.277,7.232c-1.865,2.012-2.799,4.451-2.799,7.315c0,1.478,0.13,2.83,0.389,4.06
	c0.259,1.229,0.611,2.28,1.054,3.158s0.992,1.663,1.649,2.355c0.656,0.691,1.339,1.255,2.05,1.689
	c0.71,0.435,1.514,0.808,2.409,1.123c0.895,0.313,1.746,0.555,2.551,0.721c0.806,0.165,1.687,0.295,2.646,0.388
	c-1.516,1.034-2.272,2.678-2.272,4.933v4.334c-0.836-0.248-1.663-0.542-2.473-0.887c-2.837-1.199-5.385-2.918-7.576-5.108
	c-2.19-2.191-3.909-4.739-5.109-7.577c-1.245-2.932-1.874-6.054-1.874-9.272c0-3.218,0.63-6.34,1.872-9.276
	c1.2-2.836,2.918-5.384,5.109-7.575s4.738-3.909,7.575-5.108c2.934-1.242,6.055-1.871,9.274-1.871s6.34,0.63,9.275,1.872
	c2.838,1.2,5.385,2.918,7.575,5.109c2.191,2.191,3.909,4.738,5.109,7.577c1.242,2.932,1.87,6.054,1.87,9.272
	c0,3.218-0.628,6.34-1.87,9.275C49.134,40.484,47.416,43.034,45.225,45.225z"/>
</svg>
