<?xml version="1.0" encoding="utf-8"?>
<!-- Generator: Adobe Illustrator 17.0.0, SVG Export Plug-In . SVG Version: 6.00 Build 0)  -->
<!DOCTYPE svg PUBLIC "-//W3C//DTD SVG 1.1//EN" "http://www.w3.org/Graphics/SVG/1.1/DTD/svg11.dtd">
<svg version="1.1" id="图层_1" xmlns="http://www.w3.org/2000/svg" xmlns:xlink="http://www.w3.org/1999/xlink" x="0px" y="0px"
	 width="342px" height="345px" viewBox="0 0 342 345" enable-background="new 0 0 342 345" xml:space="preserve">
<path fill="#FFFFFF" d="M336.006,210.74c-6.824-6.723-21.957-10.283-44.986-10.586c-15.589-0.172-34.351,1.201-54.085,3.964
	c-8.837-5.099-17.946-10.647-25.094-17.329c-19.231-17.958-35.284-42.886-45.288-70.297c0.652-2.56,1.207-4.81,1.724-7.106
	c0,0,10.833-61.53,7.965-82.333c-0.395-2.853-0.637-3.681-1.404-5.898l-0.941-2.417c-2.948-6.796-8.724-13.997-17.783-13.604
	l-5.312-0.169l-0.146-0.003c-10.1,0-18.332,5.166-20.493,12.887c-6.569,24.217,0.209,60.446,12.491,107.369l-3.144,7.643
	c-8.794,21.438-19.815,43.03-29.539,62.079l-1.264,2.476c-10.23,20.019-19.512,37.013-27.927,51.411l-8.688,4.594
	c-0.632,0.334-15.522,8.209-19.014,10.322C23.45,281.434,3.817,301.513,0.56,317.451c-1.036,5.085-0.265,11.593,5.007,14.607
	l8.403,4.229c3.645,1.826,7.489,2.751,11.427,2.751c21.102,0,45.6-26.286,79.348-85.183c38.965-12.684,83.327-23.228,122.207-29.045
	c29.629,16.684,66.071,28.273,89.071,28.273c4.084,0,7.606-0.389,10.466-1.148c4.411-1.168,8.129-3.683,10.396-7.096
	c4.463-6.716,5.367-15.966,4.156-25.438C340.68,216.589,338.435,213.113,336.006,210.74z M20.823,323.024
	c3.848-10.521,19.08-31.322,41.602-49.778c1.416-1.148,4.904-4.416,8.097-7.451C46.971,303.357,31.199,318.328,20.823,323.024z
	 M154.217,15.843c6.783,0,10.642,17.097,10.962,33.127s-3.429,27.28-8.079,35.604c-3.851-12.324-5.713-31.75-5.713-44.452
	C151.387,40.122,151.104,15.843,154.217,15.843z M114.426,234.747c4.725-8.458,9.641-17.378,14.665-26.839
	c12.246-23.158,19.979-41.278,25.739-56.173c11.455,20.842,25.722,38.56,42.493,52.756c2.092,1.771,4.309,3.551,6.637,5.325
	C169.855,216.564,140.378,224.771,114.426,234.747z M329.452,232.826c-2.077,1.299-8.027,2.05-11.854,2.05
	c-12.353,0-27.636-5.647-49.063-14.833c8.234-0.609,15.781-0.919,22.55-0.919c12.391,0,16.06-0.054,28.175,3.036
	S331.529,231.527,329.452,232.826z"/>
</svg>
